<svg width="189" height="189" viewBox="0 0 189 189" fill="none" xmlns="http://www.w3.org/2000/svg">
<path d="M18.1298 96.9381C16.8257 96.9381 15.7673 95.96 15.7673 94.6607V94.5C15.7673 86.2454 17.0384 78.1137 19.5473 70.3316C19.949 69.089 21.2814 68.418 22.5193 68.8055C23.762 69.2071 24.4424 70.5395 24.0455 71.7775C21.6878 79.0918 20.4923 86.7368 20.4923 94.5C20.4923 95.7994 19.4386 96.9381 18.1298 96.9381ZM117.435 164.884C110.074 167.274 102.386 168.498 94.585 168.508C93.2809 168.508 92.2225 169.576 92.2225 170.87C92.2225 172.165 93.2809 173.233 94.585 173.233C102.882 173.223 111.071 171.929 118.9 169.382C120.143 168.985 120.814 167.648 120.407 166.405C120.006 165.167 118.668 164.482 117.435 164.884ZM24.1353 117.501C23.7337 116.259 22.4154 115.583 21.1586 115.989C19.9206 116.391 19.2402 117.728 19.6465 118.966C22.2075 126.81 25.9828 134.185 30.8731 140.885C31.3362 141.523 32.0544 141.854 32.7821 141.854C33.264 141.854 33.7554 141.712 34.1712 141.396C35.2249 140.625 35.4564 139.147 34.6862 138.098C30.0983 131.804 26.545 124.872 24.1353 117.501ZM117.152 24.0219C124.537 26.3939 131.483 29.9092 137.8 34.4736C138.22 34.776 138.702 34.9225 139.18 34.9225C139.912 34.9225 140.635 34.5823 141.093 33.9444C141.859 32.886 141.618 31.4071 140.569 30.6463C133.85 25.789 126.46 22.0468 118.597 19.5237C117.355 19.1315 116.032 19.8119 115.625 21.0499C115.229 22.2925 115.909 23.625 117.152 24.0219ZM32.6025 52.1167C33.3349 52.1167 34.0578 51.7765 34.5161 51.1387C39.0757 44.8402 44.5662 39.3214 50.8457 34.7287C51.8994 33.9586 52.1262 32.4796 51.356 31.426C50.5906 30.3723 49.1116 30.1455 48.0532 30.9157C41.3768 35.7966 35.5367 41.6698 30.6889 48.3651C29.9234 49.4235 30.1597 50.8977 31.2181 51.6632C31.6386 51.975 32.1253 52.1167 32.6025 52.1167ZM70.6954 24.2771C70.9364 24.2771 71.1868 24.2392 71.4325 24.1589C78.7846 21.7492 86.4722 20.5159 94.2779 20.497C95.5773 20.4923 96.6404 19.4339 96.6357 18.1298C96.631 16.8304 95.5678 15.772 94.2732 15.772H94.2685C85.9666 15.7957 77.7877 17.1092 69.9631 19.6702C68.7251 20.0765 68.0494 21.409 68.4558 22.6516C68.7771 23.6439 69.6985 24.2771 70.6954 24.2771ZM71.7066 164.931C64.3261 162.54 57.3851 159.015 51.0773 154.437C50.0236 153.662 48.5399 153.907 47.7792 154.952C47.0138 156.019 47.25 157.494 48.3037 158.259C55.0132 163.121 62.3983 166.878 70.2513 169.415C70.4923 169.5 70.738 169.524 70.979 169.524C71.9759 169.524 72.902 168.886 73.2281 167.889C73.6297 166.665 72.9493 165.332 71.7066 164.931ZM154.394 137.979C149.82 144.264 144.316 149.773 138.031 154.352C136.978 155.122 136.751 156.601 137.516 157.654C137.984 158.288 138.698 158.628 139.425 158.628C139.907 158.628 140.394 158.481 140.814 158.174C147.5 153.303 153.35 147.444 158.217 140.748C158.992 139.685 158.751 138.216 157.706 137.45C156.634 136.685 155.16 136.926 154.394 137.979ZM170.87 91.9863C169.566 91.9863 168.508 93.1912 168.508 94.5C168.508 102.306 167.298 110.003 164.902 117.364C164.506 118.607 165.186 119.935 166.424 120.341C166.665 120.426 166.911 120.454 167.142 120.454C168.139 120.454 169.065 119.821 169.396 118.815C171.943 110.99 173.233 102.797 173.233 94.5V94.1976C173.233 92.8935 172.174 91.9863 170.87 91.9863ZM164.817 71.3617C165.143 72.3539 166.07 72.9871 167.067 72.9871C167.317 72.9871 167.558 72.9493 167.804 72.8689C169.042 72.4626 169.713 71.1254 169.306 69.8875C166.726 62.044 162.927 54.6777 158.028 47.9965C157.253 46.9429 155.769 46.7161 154.73 47.491C153.681 48.2659 153.449 49.7401 154.229 50.7938C158.831 57.0686 162.394 63.9907 164.817 71.3617ZM189 94.5C189 146.603 146.603 189 94.5 189C42.3927 189 0 146.603 0 94.5C0 42.3927 42.3927 0 94.5 0C146.603 0 189 42.3927 189 94.5ZM179.55 94.5C179.55 47.6044 141.396 9.45 94.5 9.45C47.6044 9.45 9.45 47.6044 9.45 94.5C9.45 141.396 47.6044 179.55 94.5 179.55C141.396 179.55 179.55 141.396 179.55 94.5ZM102.466 98.3651C100.888 97.765 98.4785 97.4626 95.2466 97.4626H87.8614V109.814C87.8897 111.562 87.9559 112.583 88.0646 112.88C88.2016 113.254 88.4237 113.528 88.7402 113.674C89.0521 113.816 89.9026 113.906 91.287 113.906H95.445C97.8642 113.906 99.8723 113.674 101.455 113.216C103.052 112.772 104.408 111.836 105.514 110.414C106.62 108.992 107.187 107.295 107.187 105.301C107.187 103.615 106.79 102.183 106.005 101.002C105.226 99.8534 104.045 98.9651 102.466 98.3651ZM162.71 94.5C162.71 132.172 132.172 162.71 94.5 162.71C56.8323 162.71 26.2946 132.172 26.2946 94.5C26.2946 56.8323 56.8323 26.2946 94.5 26.2946C132.172 26.2946 162.71 56.8323 162.71 94.5ZM122.009 106.828C122.009 104.295 121.409 102.003 120.209 99.9432C119.009 97.8736 117.374 96.2813 115.347 95.1237C113.924 94.3015 111.888 93.5503 109.209 92.8746C111.699 92.0288 113.702 90.961 115.214 89.6616C116.731 88.3669 117.893 86.8738 118.701 85.187C119.505 83.4955 119.906 81.7094 119.906 79.8289C119.906 77.2396 119.146 74.8582 117.634 72.6894C116.103 70.5253 113.924 68.8574 111.089 67.7045C109.984 67.2557 108.67 66.9154 107.257 66.6414V56.5724H97.5949V65.961H91.3862V56.5724H81.7236V65.961H66.9863V73.8517H69.2402C70.738 73.8517 71.7538 73.9935 72.2878 74.2628C72.8217 74.5322 73.195 74.9054 73.4123 75.3637C73.6344 75.8268 73.7431 76.9088 73.7431 78.5956V110.414C73.7431 112.086 73.6391 113.15 73.4123 113.627C73.195 114.109 72.8217 114.477 72.2878 114.728C71.7538 114.988 70.7427 115.12 69.2402 115.12H66.9863V123.011H81.7236V132.395H91.3862V123.011H96.8814C97.1365 123.011 97.3681 123.006 97.5996 123.006V132.395H107.262V122.198C108.883 121.886 110.315 121.494 111.519 120.998C114.851 119.67 117.426 117.733 119.264 115.181C121.092 112.649 122.009 109.856 122.009 106.828ZM101.37 88.2583C102.944 87.7149 104.115 86.888 104.909 85.7966C105.698 84.6956 106.09 83.4151 106.09 81.9693C106.09 80.4715 105.717 79.191 104.971 78.1279C104.219 77.0648 103.128 76.3088 101.72 75.8599C100.298 75.4063 97.7603 75.1795 94.1173 75.1795H87.8614V89.0852H94.1173C97.387 89.0804 99.8014 88.8064 101.37 88.2583Z" fill="url(#paint0_linear)"/>
<defs>
<linearGradient id="paint0_linear" x1="248.5" y1="-80" x2="-83" y2="271" gradientUnits="userSpaceOnUse">
<stop stop-color="#00FFFF"/>
<stop offset="1" stop-color="#00FF85"/>
</linearGradient>
</defs>
</svg>
